# xmcd CD database file
#
# Track frame offsets:
#	150
#	15867
#	32922
#	49240
#	70260
#	84602
#	102975
#	121295
#	138722
#	157107
#	178635
#	198657
#
# Disc length: 2861 seconds
#
# Revision: 14
# Processed by: cddbd v1.5.2PL0 Copyright (c) Steve Scherf et al.
# Submitted via: CDex 1.51
#
DISCID=a80b2b0c
DTITLE=Howard Carpendale - Ich bin da!
DYEAR=1994
DGENRE=Schlager
TTITLE0=Nun sind wir hier
TTITLE1=Ich bin da
TTITLE2=Du bist die Antwort für mich
TTITLE3=Es ist niemals zu früh
TTITLE4=You Were On My Mind
TTITLE5=Nicht mehr nur dein Vater
TTITLE6=Hey, versuchs noch mal mit mir
TTITLE7=Beverly
TTITLE8=Win Or Lose
TTITLE9=Lichterketten
TTITLE10=Komm wie du bist
TTITLE11=Weil du gut tust
EXTD=YEAR - 1994 YEAR: 1994
EXTT0=
EXTT1=
EXTT2=
EXTT3=
EXTT4=
EXTT5=
EXTT6=
EXTT7=
EXTT8=
EXTT9=
EXTT10=
EXTT11=
PLAYORDER=
